<svg width="32" height="32" viewBox="0 0 32 32" fill="none" xmlns="http://www.w3.org/2000/svg">
<rect width="32" height="32" fill="#222222"/>
<g clip-path="url(#clip0_0_1)">
<path d="M-30 -33H1410V957H-30V-33Z" fill="white"/>
<circle cx="5.33333" cy="5.33333" r="5.33333" fill="url(#paint0_linear_0_1)"/>
<circle opacity="0.8" cx="5.33333" cy="16" r="5.33333" fill="url(#paint1_linear_0_1)"/>
<circle opacity="0.6" cx="5.33333" cy="26.6667" r="5.33333" fill="url(#paint2_linear_0_1)"/>
<circle opacity="0.4" cx="16.0001" cy="26.6667" r="5.33333" fill="url(#paint3_linear_0_1)"/>
<circle cx="26.6666" cy="26.6667" r="5.33333" fill="url(#paint4_linear_0_1)"/>
<circle cx="16.0001" cy="16" r="4" stroke="url(#paint5_linear_0_1)" stroke-width="2.66667"/>
<circle opacity="0.8" cx="26.6667" cy="16" r="5.33333" transform="rotate(-180 26.6667 16)" fill="url(#paint6_linear_0_1)"/>
<circle opacity="0.6" cx="26.6667" cy="5.33329" r="5.33333" transform="rotate(-180 26.6667 5.33329)" fill="url(#paint7_linear_0_1)"/>
<circle opacity="0.4" cx="15.9999" cy="5.33329" r="5.33333" transform="rotate(-180 15.9999 5.33329)" fill="url(#paint8_linear_0_1)"/>
</g>
<defs>
<linearGradient id="paint0_linear_0_1" x1="-0.255183" y1="-0.533336" x2="9.11019" y2="1.3599" gradientUnits="userSpaceOnUse">
<stop stop-color="#7166D2"/>
<stop offset="1" stop-color="#534ABA"/>
<stop offset="1" stop-color="#534ABA"/>
</linearGradient>
<linearGradient id="paint1_linear_0_1" x1="-0.255183" y1="10.1333" x2="9.11019" y2="12.0265" gradientUnits="userSpaceOnUse">
<stop stop-color="#7166D2"/>
<stop offset="1" stop-color="#534ABA"/>
</linearGradient>
<linearGradient id="paint2_linear_0_1" x1="-0.255183" y1="20.8" x2="9.11019" y2="22.6933" gradientUnits="userSpaceOnUse">
<stop stop-color="#7166D2"/>
<stop offset="1" stop-color="#534ABA"/>
</linearGradient>
<linearGradient id="paint3_linear_0_1" x1="10.4116" y1="20.8" x2="19.7769" y2="22.6933" gradientUnits="userSpaceOnUse">
<stop stop-color="#7166D2"/>
<stop offset="1" stop-color="#534ABA"/>
</linearGradient>
<linearGradient id="paint4_linear_0_1" x1="21.0781" y1="20.8" x2="30.4434" y2="22.6933" gradientUnits="userSpaceOnUse">
<stop stop-color="#7166D2"/>
<stop offset="1" stop-color="#534ABA"/>
</linearGradient>
<linearGradient id="paint5_linear_0_1" x1="16.0001" y1="10.6666" x2="16.0001" y2="21.3333" gradientUnits="userSpaceOnUse">
<stop stop-color="#7166D2"/>
<stop offset="1" stop-color="#534ABA"/>
</linearGradient>
<linearGradient id="paint6_linear_0_1" x1="21.0782" y1="10.1334" x2="30.4435" y2="12.0266" gradientUnits="userSpaceOnUse">
<stop stop-color="#7166D2"/>
<stop offset="1" stop-color="#534ABA"/>
</linearGradient>
<linearGradient id="paint7_linear_0_1" x1="21.0782" y1="-0.533375" x2="30.4435" y2="1.35986" gradientUnits="userSpaceOnUse">
<stop stop-color="#7166D2"/>
<stop offset="1" stop-color="#534ABA"/>
</linearGradient>
<linearGradient id="paint8_linear_0_1" x1="10.4114" y1="-0.533375" x2="19.7768" y2="1.35986" gradientUnits="userSpaceOnUse">
<stop stop-color="#7166D2"/>
<stop offset="1" stop-color="#534ABA"/>
</linearGradient>
<clipPath id="clip0_0_1">
<rect width="1440" height="991" fill="white" transform="translate(-30 -33)"/>
</clipPath>
</defs>
</svg>
